<?xml version="1.0" standalone="no"?>
<!DOCTYPE svg PUBLIC "-//W3C//DTD SVG 20010904//EN"
 "http://www.w3.org/TR/2001/REC-SVG-20010904/DTD/svg10.dtd">
<svg version="1.0" xmlns="http://www.w3.org/2000/svg"
 width="500.000000pt" height="500.000000pt" viewBox="0 0 500.000000 500.000000"
 preserveAspectRatio="xMidYMid meet">

<g transform="translate(0.000000,500.000000) scale(0.100000,-0.100000)"
fill="#000000" stroke="none">
<path d="M0 2500 l0 -2500 2500 0 2500 0 0 2500 0 2500 -2500 0 -2500 0 0
-2500z m2115 1730 c3 -5 1 -10 -4 -10 -6 0 -11 5 -11 10 0 6 2 10 4 10 3 0 8
-4 11 -10z m-210 -40 c3 -5 1 -10 -4 -10 -6 0 -11 5 -11 10 0 6 2 10 4 10 3 0
8 -4 11 -10z m730 -56 c114 -22 260 -82 361 -149 531 -354 608 -1101 159
-1550 -96 -96 -159 -142 -272 -199 -197 -99 -471 -127 -693 -72 -249 63 -478
232 -610 451 -62 103 -85 156 -117 275 -23 83 -26 114 -26 250 0 196 25 300
109 466 77 153 209 298 355 391 25 15 45 32 45 37 -1 5 8 10 19 11 11 1 54 16
96 33 192 77 368 94 574 56z m485 -74 c0 -5 -4 -10 -10 -10 -5 0 -10 5 -10 10
0 6 5 10 10 10 6 0 10 -4 10 -10z m950 -50 c0 -5 -4 -10 -10 -10 -5 0 -10 5
-10 10 0 6 5 10 10 10 6 0 10 -4 10 -10z m540 -360 c0 -5 -5 -10 -11 -10 -5 0
-7 5 -4 10 3 6 8 10 11 10 2 0 4 -4 4 -10z m-3430 -70 c0 -5 -4 -10 -10 -10
-5 0 -10 5 -10 10 0 6 5 10 10 10 6 0 10 -4 10 -10z m3060 -130 c0 -5 -5 -10
-11 -10 -5 0 -7 5 -4 10 3 6 8 10 11 10 2 0 4 -4 4 -10z m-540 -364 c0 -3 -4
-8 -10 -11 -5 -3 -10 -1 -10 4 0 6 5 11 10 11 6 0 10 -2 10 -4z m-2290 -386
c0 -5 -2 -10 -4 -10 -3 0 -8 5 -11 10 -3 6 -1 10 4 10 6 0 11 -4 11 -10z
m2100 -144 c0 -3 -4 -8 -10 -11 -5 -3 -10 -1 -10 4 0 6 5 11 10 11 6 0 10 -2
10 -4z m210 -40 c0 -3 -4 -8 -10 -11 -5 -3 -10 -1 -10 4 0 6 5 11 10 11 6 0
10 -2 10 -4z m-2068 -577 l31 -51 31 51 c23 37 37 51 53 51 23 0 23 -2 23
-131 0 -130 0 -130 -22 -127 -22 3 -23 9 -26 87 l-3 84 -25 -36 c-28 -42 -41
-40 -71 11 l-22 37 -1 -92 c0 -86 -1 -93 -20 -93 -19 0 -20 7 -20 130 0 124 1
130 20 130 13 0 31 -17 52 -51z m412 25 c24 -24 26 -34 26 -106 0 -70 -3 -82
-25 -103 -35 -36 -102 -35 -136 1 -21 23 -24 35 -24 106 0 75 2 81 28 104 39
34 96 33 131 -2z m300 -5 c22 -26 26 -40 26 -95 0 -99 -25 -133 -98 -134 -34
0 -48 6 -67 26 -22 24 -25 36 -25 104 0 70 2 80 26 104 40 39 103 37 138 -5z
m231 -51 l50 -83 3 83 c3 80 3 82 27 82 l25 0 0 -130 c0 -129 0 -130 -23 -130
-18 0 -34 17 -73 82 l-49 82 -3 -82 c-3 -80 -4 -82 -27 -82 l-25 0 0 130 c0
128 0 130 23 130 17 0 33 -18 72 -82z m265 -28 l0 -110 65 0 c58 0 65 -2 65
-20 0 -18 -7 -20 -85 -20 l-85 0 0 130 c0 123 1 130 20 130 19 0 20 -7 20
-110z m280 -20 c0 -123 -1 -130 -20 -130 -19 0 -20 7 -20 130 0 123 1 130 20
130 19 0 20 -7 20 -130z m295 110 c0 -10 -12 -16 -37 -18 l-38 -3 0 -110 c0
-102 -1 -109 -20 -109 -19 0 -20 7 -20 110 l0 110 -35 0 c-29 0 -35 4 -35 20
0 20 5 21 93 18 74 -2 92 -6 92 -18z m-655 -70 c0 -5 -2 -10 -4 -10 -3 0 -8 5
-11 10 -3 6 -1 10 4 10 6 0 11 -4 11 -10z m-2490 -300 c0 -5 -2 -10 -4 -10 -3
0 -8 5 -11 10 -3 6 -1 10 4 10 6 0 11 -4 11 -10z m1804 -32 c14 -23 -1 -36
-17 -14 -7 10 -22 16 -33 14 -16 -3 -19 -12 -19 -53 0 -41 3 -50 19 -53 11 -2
26 4 33 14 16 22 31 9 17 -14 -13 -21 -60 -28 -80 -11 -18 14 -19 110 -2 127
17 17 69 11 82 -10z m116 -53 c0 -43 -4 -75 -10 -75 -6 0 -10 32 -10 75 0 43
4 75 10 75 6 0 10 -32 10 -75z m145 22 l30 -52 3 53 c5 80 22 62 22 -23 0 -41
-4 -75 -9 -75 -5 0 -24 24 -43 53 l-33 52 -3 -52 c-5 -81 -22 -63 -22 22 0 91
13 97 55 22z m245 43 c0 -5 -18 -10 -41 -10 -36 0 -40 -2 -37 -22 2 -17 11
-24 33 -27 l30 -4 -30 -6 c-21 -4 -31 -13 -33 -29 -3 -20 1 -22 37 -22 23 0
41 -4 41 -10 0 -5 -22 -10 -50 -10 l-50 0 0 75 0 75 50 0 c28 0 50 -4 50 -10z
m128 -22 l20 -31 16 31 c26 50 36 38 36 -43 0 -43 -4 -75 -10 -75 -5 0 -10 24
-10 52 0 52 0 52 -16 29 l-17 -24 -18 24 -19 24 0 -52 c0 -29 -4 -53 -10 -53
-6 0 -10 32 -10 75 0 41 4 75 9 75 5 0 18 -14 29 -32z m255 -43 c14 -41 21
-75 16 -75 -5 0 -12 7 -15 15 -8 21 -61 19 -73 -2 -5 -10 -12 -15 -16 -11 -10
10 37 148 51 148 7 0 24 -34 37 -75z m-1853 -795 c0 -5 -4 -10 -10 -10 -5 0
-10 5 -10 10 0 6 5 10 10 10 6 0 10 -4 10 -10z m210 -40 c0 -5 -4 -10 -10 -10
-5 0 -10 5 -10 10 0 6 5 10 10 10 6 0 10 -4 10 -10z m2800 -440 c0 -5 -5 -10
-11 -10 -5 0 -7 5 -4 10 3 6 8 10 11 10 2 0 4 -4 4 -10z m-2870 -164 c0 -3 -4
-8 -10 -11 -5 -3 -10 -1 -10 4 0 6 5 11 10 11 6 0 10 -2 10 -4z"/>
<path d="M1962 1938 c-7 -7 -12 -41 -12 -85 0 -61 3 -74 19 -83 28 -14 38 -13
61 10 15 15 20 33 20 76 0 30 -5 64 -10 75 -12 22 -59 26 -78 7z"/>
<path d="M2261 1936 c-17 -20 -25 -78 -17 -121 8 -43 41 -64 75 -46 18 10 21
20 21 84 0 44 -5 78 -12 85 -16 16 -53 15 -67 -2z"/>
<path d="M2933 1527 c-12 -39 -9 -47 19 -47 21 0 22 13 5 54 l-13 29 -11 -36z"/>
</g>
</svg>
